<svg width="33" height="33" viewBox="0 0 33 33" fill="none" xmlns="http://www.w3.org/2000/svg">
<path d="M20.3651 24.0625C19.4494 27.621 16.2195 30.25 12.375 30.25C7.81894 30.25 4.125 26.5561 4.125 22C4.125 18.6705 6.09744 15.8015 8.9375 14.498" stroke="white" stroke-width="1.5" stroke-linecap="round" stroke-linejoin="round"/>
<path d="M12.375 8.25L13.75 20.625L24.0625 19.9375L26.125 27.5H28.1875" stroke="white" stroke-width="1.5" stroke-linecap="round" stroke-linejoin="round"/>
<path d="M17.1875 13.75H22.6875M15.125 5.5C15.125 6.22935 14.8353 6.92882 14.3195 7.44454C13.8038 7.96027 13.1043 8.25 12.375 8.25C11.6457 8.25 10.9462 7.96027 10.4305 7.44454C9.91473 6.92882 9.625 6.22935 9.625 5.5C9.625 4.77065 9.91473 4.07118 10.4305 3.55546C10.9462 3.03973 11.6457 2.75 12.375 2.75C13.1043 2.75 13.8038 3.03973 14.3195 3.55546C14.8353 4.07118 15.125 4.77065 15.125 5.5Z" stroke="white" stroke-width="1.5" stroke-linecap="round" stroke-linejoin="round"/>
</svg>
