<svg width="33" height="33" viewBox="0 0 33 33" fill="none" xmlns="http://www.w3.org/2000/svg">
<path d="M18.5625 9.625C18.9422 9.625 19.25 9.3172 19.25 8.9375C19.25 8.5578 18.9422 8.25 18.5625 8.25C18.1828 8.25 17.875 8.5578 17.875 8.9375C17.875 9.3172 18.1828 9.625 18.5625 9.625Z" fill="black" stroke="white" stroke-width="1.5" stroke-linecap="round" stroke-linejoin="round"/>
<path d="M24.0625 15.125C24.4422 15.125 24.75 14.8172 24.75 14.4375C24.75 14.0578 24.4422 13.75 24.0625 13.75C23.6828 13.75 23.375 14.0578 23.375 14.4375C23.375 14.8172 23.6828 15.125 24.0625 15.125Z" fill="black" stroke="white" stroke-width="1.5" stroke-linecap="round" stroke-linejoin="round"/>
<path d="M11.6875 11C12.0672 11 12.375 10.6922 12.375 10.3125C12.375 9.9328 12.0672 9.625 11.6875 9.625C11.3078 9.625 11 9.9328 11 10.3125C11 10.6922 11.3078 11 11.6875 11Z" fill="black" stroke="white" stroke-width="1.5" stroke-linecap="round" stroke-linejoin="round"/>
<path d="M8.9375 17.875C9.3172 17.875 9.625 17.5672 9.625 17.1875C9.625 16.8078 9.3172 16.5 8.9375 16.5C8.5578 16.5 8.25 16.8078 8.25 17.1875C8.25 17.5672 8.5578 17.875 8.9375 17.875Z" fill="black" stroke="white" stroke-width="1.5" stroke-linecap="round" stroke-linejoin="round"/>
<path d="M16.5 2.75C8.9375 2.75 2.75 8.9375 2.75 16.5C2.75 24.0625 8.9375 30.25 16.5 30.25C17.7732 30.25 18.766 29.2242 18.766 27.929C18.766 27.3281 18.5185 26.7809 18.1651 26.3821C17.7664 25.9848 17.5629 25.4856 17.5629 24.8353C17.5577 24.5326 17.6134 24.2321 17.7268 23.9514C17.8403 23.6708 18.009 23.4159 18.223 23.2019C18.437 22.9879 18.6919 22.8191 18.9726 22.7057C19.2532 22.5923 19.5538 22.5365 19.8564 22.5417H22.6009C26.796 22.5417 30.239 19.1001 30.239 14.905C30.2019 8.2665 24.0089 2.75 16.5 2.75Z" stroke="white" stroke-width="1.5" stroke-linecap="round" stroke-linejoin="round"/>
</svg>
