<svg width="179" height="161" viewBox="0 0 179 161" fill="none" xmlns="http://www.w3.org/2000/svg">
<path d="M0 62.5263V0H30.4145C38.2036 0 44.1382 1.48872 48.2182 4.46617C52.2982 7.38406 54.3382 11.3143 54.3382 16.2568C54.3382 19.5916 53.5345 22.4499 51.9273 24.8319C50.32 27.1543 48.1563 28.9705 45.4363 30.2806C42.7782 31.5311 39.8727 32.1564 36.72 32.1564L38.3891 28.9408C42.0364 28.9408 45.3127 29.5958 48.2182 30.9059C51.1236 32.1564 53.4109 34.0024 55.08 36.4439C56.8109 38.8854 57.6763 41.9224 57.6763 45.5549C57.6763 50.9143 55.5436 55.0827 51.2782 58.0602C47.0127 61.0376 40.6763 62.5263 32.2691 62.5263H0ZM12.0545 53.4153H31.5273C36.04 53.4153 39.5018 52.7008 41.9127 51.2716C44.3236 49.8424 45.5291 47.5498 45.5291 44.3937C45.5291 41.2971 44.3236 39.0343 41.9127 37.6051C39.5018 36.1164 36.04 35.372 31.5273 35.372H11.1273V26.3504H29.1164C33.32 26.3504 36.5345 25.6358 38.76 24.2066C41.0473 22.7774 42.1909 20.6337 42.1909 17.7753C42.1909 14.8574 41.0473 12.6839 38.76 11.2547C36.5345 9.82556 33.32 9.11098 29.1164 9.11098H12.0545V53.4153Z" fill="#264653"/>
<path d="M85.5509 62.5263V54.7552L127.464 5.44872L128.855 9.82557H86.2V0H139.704V7.77113L97.7909 57.0776L96.3073 52.7008H140.909V62.5263H85.5509Z" fill="#264653"/>
<path d="M151.128 62.5263V9.82557H129.615V0H179V9.82557H163.182V62.5263H151.128Z" fill="#264653"/>
<path d="M63.1448 25.9931H95.4139V35.5507H63.1448V25.9931ZM64.0721 52.7901H100.699V62.5263H52.0176V0H99.4012V9.73624H64.0721V52.7901Z" fill="#F9994E"/>
<rect y="77.7765" width="178.67" height="5.44654" fill="#264653"/>
<path d="M63.1448 124.467H95.4139V134.024H63.1448V124.467ZM64.0721 151.263H100.699V161H52.0176V98.4734H99.4012V108.21H64.0721V151.263Z" fill="#264653"/>
<path d="M11.0345 127.236H45.563V137.061H11.0345V127.236ZM12.0545 161H0V98.4735L60.8585 98.4735V108.21H12.0545V161Z" fill="#264653"/>
<path d="M151.128 161V108.299H129.615V98.4734H179V108.299H163.182V161H151.128Z" fill="#264653"/>
<path d="M85.5509 161V153.229L127.464 103.922L128.855 108.299H86.2V98.4734H139.704V106.245L97.7909 155.551L96.3073 151.174H140.909V161H85.5509Z" fill="#328C73"/>
</svg>
