<svg width="30" height="30" viewBox="0 0 30 30" fill="none" xmlns="http://www.w3.org/2000/svg">
<path d="M10 5H9C7.6 5 6.9 5 6.365 5.2725C5.89456 5.51211 5.51211 5.89456 5.2725 6.365C5 6.9 5 7.6 5 9V10M10 5H20M10 5V2.5M5 10V21C5 22.4 5 23.1 5.2725 23.635C5.51218 24.1054 5.89462 24.4878 6.365 24.7275C6.89875 25 7.59875 25 8.99625 25H21.0038C22.4013 25 23.1 25 23.6338 24.7275C24.105 24.4875 24.4875 24.105 24.7275 23.635C25 23.1 25 22.4025 25 21.005V10M5 10H25M20 5H21C22.4 5 23.1 5 23.6338 5.2725C24.105 5.5125 24.4875 5.89375 24.7275 6.365C25 6.89875 25 7.59875 25 8.99625V10M20 5V2.5M20 20H20.0025V20.0025H20V20ZM15 20H15.0025V20.0025H15V20ZM10 20H10.0025V20.0025H10V20ZM20.0025 15V15.0025H20V15H20.0025ZM15 15H15.0025V15.0025H15V15ZM10 15H10.0025V15.0025H10V15Z" stroke="white" stroke-width="1.5" stroke-linecap="round" stroke-linejoin="round"/>
</svg>
