<svg width="33" height="29" viewBox="0 0 33 29" fill="none" xmlns="http://www.w3.org/2000/svg">
<path d="M19.8889 23.5344H31.9091M1 23.5344H4.43434M4.43434 23.5344C4.43434 24.5633 4.88663 25.55 5.69171 26.2775C6.49679 27.005 7.58872 27.4137 8.72727 27.4137C9.86583 27.4137 10.9578 27.005 11.7628 26.2775C12.5679 25.55 13.0202 24.5633 13.0202 23.5344C13.0202 22.5056 12.5679 21.5188 11.7628 20.7913C10.9578 20.0638 9.86583 19.6551 8.72727 19.6551C7.58872 19.6551 6.49679 20.0638 5.69171 20.7913C4.88663 21.5188 4.43434 22.5056 4.43434 23.5344ZM30.1919 14.2241H31.9091M1 14.2241H13.0202M18.1717 4.91373H31.9091M18.1717 4.91373C18.1717 3.88488 17.7194 2.89816 16.9143 2.17065C16.1093 1.44314 15.0173 1.03442 13.8788 1.03442C12.7402 1.03442 11.6483 1.44314 10.8432 2.17065C10.0381 2.89816 9.58586 3.88488 9.58586 4.91373C9.58586 5.94259 10.0381 6.92931 10.8432 7.65682C11.6483 8.38433 12.7402 8.79304 13.8788 8.79304C15.0173 8.79304 16.1093 8.38433 16.9143 7.65682C17.7194 6.92931 18.1717 5.94259 18.1717 4.91373ZM1 4.91373H2.71717M24.1818 18.1034C23.0433 18.1034 21.9513 17.6947 21.1463 16.9672C20.3412 16.2397 19.8889 15.2529 19.8889 14.2241C19.8889 13.1952 20.3412 12.2085 21.1463 11.481C21.9513 10.7535 23.0433 10.3448 24.1818 10.3448C25.3204 10.3448 26.4123 10.7535 27.2174 11.481C28.0225 12.2085 28.4747 13.1952 28.4747 14.2241C28.4747 15.2529 28.0225 16.2397 27.2174 16.9672C26.4123 17.6947 25.3204 18.1034 24.1818 18.1034Z" stroke="white" stroke-width="1.5" stroke-linecap="round" stroke-linejoin="round"/>
</svg>
