<svg width="33" height="33" viewBox="0 0 33 33" fill="none" xmlns="http://www.w3.org/2000/svg">
<path d="M14.4827 11.5012C14.9417 10.8518 15.1879 10.0761 15.1875 9.28086V4.33125C15.1875 4.25666 15.2171 4.18512 15.2699 4.13238C15.3226 4.07963 15.3942 4.05 15.4688 4.05C15.5433 4.05 15.6149 4.07963 15.6676 4.13238C15.7204 4.18512 15.75 4.25666 15.75 4.33125V9.28125V9.2814C15.7502 10.2972 15.3995 11.2818 14.7571 12.0687C14.1147 12.8556 13.2203 13.3964 12.225 13.5995L11.625 13.722V14.3344V29.9062C11.625 29.9808 11.5954 30.0524 11.5426 30.1051C11.4899 30.1579 11.4183 30.1875 11.3438 30.1875C11.2692 30.1875 11.1976 30.1579 11.1449 30.1051C11.0921 30.0524 11.0625 29.9808 11.0625 29.9062V14.3344V13.722L10.4625 13.5995C9.46725 13.3964 8.57275 12.8556 7.9304 12.0687C7.28805 11.2818 6.93729 10.2972 6.9375 9.2814V9.28125V4.33125C6.9375 4.25666 6.96713 4.18512 7.01988 4.13238C7.07262 4.07963 7.14416 4.05 7.21875 4.05C7.29334 4.05 7.36488 4.07963 7.41762 4.13238C7.47037 4.18512 7.5 4.25666 7.5 4.33125L7.5 9.28086C7.5 9.28094 7.5 9.28102 7.5 9.2811C7.5 9.28115 7.5 9.2812 7.5 9.28125C7.49966 10.0763 7.74589 10.8519 8.20476 11.5012C8.6637 12.1506 9.31277 12.6417 10.0625 12.9068L11.0625 13.2603V12.1997V3.09375C11.0625 3.01916 11.0921 2.94762 11.1449 2.89488C11.1976 2.84213 11.2692 2.8125 11.3438 2.8125C11.4183 2.8125 11.4899 2.84213 11.5426 2.89488C11.5954 2.94762 11.625 3.01916 11.625 3.09375V12.1997V13.2603L12.625 12.9068C13.3747 12.6417 14.0238 12.1506 14.4827 11.5012ZM23.4375 4.36219V3.21004L22.3839 3.67637C21.917 3.88306 21.4718 4.1913 21.0822 4.583C20.3471 5.31631 19.875 6.28111 19.875 7.21875V14.4375V15.1875H20.625H22.6875H23.4375V14.4375V4.36219ZM23.4375 16.5V15.75H22.6875H19.5938C19.5192 15.75 19.4476 15.7204 19.3949 15.6676C19.3421 15.6149 19.3125 15.5433 19.3125 15.4688V7.21875C19.3125 6.09604 19.8697 4.99841 20.683 4.18306C21.4983 3.36978 22.596 2.8125 23.7188 2.8125C23.7933 2.8125 23.8649 2.84213 23.9176 2.89488C23.9704 2.94762 24 3.01916 24 3.09375V29.9062C24 29.9808 23.9704 30.0524 23.9176 30.1051C23.8649 30.1579 23.7933 30.1875 23.7188 30.1875C23.6442 30.1875 23.5726 30.1579 23.5199 30.1051C23.4671 30.0524 23.4375 29.9808 23.4375 29.9062V16.5Z" stroke="white" stroke-width="1.5"/>
</svg>
