<svg width="26" height="24" viewBox="0 0 26 24" fill="none" xmlns="http://www.w3.org/2000/svg">
<path d="M23.2948 2.79566C24.3526 3.88865 24.9626 5.36046 24.9983 6.90578C25.034 8.4511 24.4927 9.95132 23.4866 11.0952L13.0129 23L2.5434 11.0952C2.012 10.5002 1.60231 9.80049 1.33888 9.03796C1.07544 8.27542 0.963691 7.46578 1.01032 6.65755C1.05694 5.84931 1.26099 5.05913 1.61022 4.33433C1.95945 3.60953 2.44669 2.96505 3.04274 2.43949C3.63878 1.91394 4.33136 1.51813 5.07899 1.27578C5.82661 1.03344 6.61389 0.949546 7.39364 1.02913C8.17339 1.10872 8.92957 1.35014 9.61686 1.73894C10.3042 2.12774 10.9084 2.65592 11.3934 3.29181L13.0143 5.38359L14.6337 3.29181C15.1451 2.63133 15.7856 2.08972 16.5133 1.70236C17.2411 1.31499 18.0396 1.09057 18.857 1.04375C19.6743 0.996927 20.492 1.12876 21.2567 1.43063C22.0214 1.7325 22.7159 2.19763 23.2948 2.79566Z" fill="white" stroke="white" stroke-width="1.5" stroke-linecap="round" stroke-linejoin="round"/>
</svg>
