<svg width="32" height="32" viewBox="0 0 32 32" fill="none" xmlns="http://www.w3.org/2000/svg">
<path d="M26.6668 22.6667V15.2693C26.6668 14.5573 26.6668 14.2013 26.5802 13.8693C26.5035 13.5758 26.3772 13.2976 26.2068 13.0466C26.0135 12.7626 25.7468 12.5266 25.2095 12.0586L18.8095 6.45865C17.8148 5.58798 17.3162 5.15198 16.7562 4.98665C16.2628 4.83998 15.7375 4.83998 15.2428 4.98665C14.6828 5.15198 14.1868 5.58665 13.1922 6.45598L6.79083 12.0586C6.25483 12.528 5.98683 12.7627 5.79483 13.0453C5.6239 13.2966 5.49718 13.5753 5.42016 13.8693C5.3335 14.2 5.3335 14.5573 5.3335 15.2693V22.6667C5.3335 23.9093 5.3335 24.5307 5.53616 25.02C5.67003 25.3436 5.86633 25.6377 6.11387 25.8855C6.3614 26.1332 6.65532 26.3298 6.97883 26.464C7.4695 26.6667 8.09083 26.6667 9.3335 26.6667C10.5762 26.6667 11.1975 26.6667 11.6882 26.464C12.0117 26.3298 12.3056 26.1332 12.5531 25.8855C12.8007 25.6377 12.997 25.3436 13.1308 25.02C13.3335 24.5307 13.3335 23.9093 13.3335 22.6667V21.3333C13.3335 20.6261 13.6144 19.9478 14.1145 19.4477C14.6146 18.9476 15.2929 18.6667 16.0002 18.6667C16.7074 18.6667 17.3857 18.9476 17.8858 19.4477C18.3859 19.9478 18.6668 20.6261 18.6668 21.3333V22.6667C18.6668 23.9093 18.6668 24.5307 18.8695 25.02C19.0034 25.3436 19.1997 25.6377 19.4472 25.8855C19.6947 26.1332 19.9887 26.3298 20.3122 26.464C20.8028 26.6667 21.4242 26.6667 22.6668 26.6667C23.9095 26.6667 24.5308 26.6667 25.0215 26.464C25.345 26.3298 25.6389 26.1332 25.8865 25.8855C26.134 25.6377 26.3303 25.3436 26.4642 25.02C26.6668 24.5307 26.6668 23.9093 26.6668 22.6667Z" stroke="white" stroke-width="1.5" stroke-linecap="round" stroke-linejoin="round"/>
</svg>
