<svg width="26" height="26" viewBox="0 0 26 26" fill="none" xmlns="http://www.w3.org/2000/svg">
<path d="M13 13.75H13.0008C14.0611 13.7488 15.0776 13.3271 15.8274 12.5774C16.5771 11.8276 16.9988 10.8111 17 9.75082V9.75C17 8.95887 16.7654 8.18552 16.3259 7.52772C15.8864 6.86992 15.2616 6.35723 14.5307 6.05448C13.7998 5.75173 12.9956 5.67252 12.2196 5.82686C11.4437 5.9812 10.731 6.36216 10.1716 6.92157C9.61216 7.48098 9.2312 8.19371 9.07686 8.96964C8.92252 9.74556 9.00173 10.5498 9.30448 11.2807C9.60723 12.0116 10.1199 12.6364 10.7777 13.0759C11.4355 13.5154 12.2089 13.75 13 13.75ZM13 23.233C12.8095 23.0086 12.5768 22.7299 12.313 22.4046C11.5617 21.4779 10.5609 20.1767 9.56154 18.6777C8.56088 17.1767 7.57048 15.4905 6.83233 13.7928C6.09087 12.0874 5.625 10.4179 5.625 8.9375C5.625 5.38746 8.85245 2.375 13 2.375C17.1476 2.375 20.375 5.38746 20.375 8.9375C20.375 10.4179 19.9091 12.0874 19.1677 13.7928C18.4295 15.4905 17.4391 17.1767 16.4385 18.6777C15.4391 20.1767 14.4383 21.4779 13.687 22.4046C13.4232 22.7299 13.1905 23.0086 13 23.233Z" stroke="white" stroke-width="1.5"/>
</svg>
