<svg width="33" height="33" viewBox="0 0 33 33" fill="none" xmlns="http://www.w3.org/2000/svg">
<path d="M8.25 28.875C10.5282 28.875 12.375 27.0282 12.375 24.75C12.375 22.4718 10.5282 20.625 8.25 20.625C5.97183 20.625 4.125 22.4718 4.125 24.75C4.125 27.0282 5.97183 28.875 8.25 28.875Z" stroke="white" stroke-width="1.5" stroke-linecap="round" stroke-linejoin="round"/>
<path d="M12.375 24.75V6.875" stroke="white" stroke-width="1.5" stroke-linecap="round" stroke-linejoin="round"/>
<path d="M28.875 4.125L12.375 6.875M28.875 9.625L12.375 12.375" stroke="white" stroke-width="1.5" stroke-linecap="round"/>
<path d="M24.75 26.125C27.0282 26.125 28.875 24.2782 28.875 22C28.875 19.7218 27.0282 17.875 24.75 17.875C22.4718 17.875 20.625 19.7218 20.625 22C20.625 24.2782 22.4718 26.125 24.75 26.125Z" stroke="white" stroke-width="1.5" stroke-linecap="round" stroke-linejoin="round"/>
<path d="M28.875 22V4.125" stroke="white" stroke-width="1.5" stroke-linecap="round" stroke-linejoin="round"/>
</svg>
