<svg width="30" height="30" viewBox="0 0 30 30" fill="none" xmlns="http://www.w3.org/2000/svg">
<path d="M16.0055 15.2427L6.73633 16.7869C6.62973 16.8047 6.52973 16.8502 6.44633 16.9189C6.36293 16.9876 6.29913 17.0771 6.26123 17.1783L3.06524 25.7396C2.76004 26.5271 3.58333 27.2777 4.33903 26.8987L26.4906 15.8247C26.6437 15.748 26.7724 15.6302 26.8624 15.4845C26.9524 15.3388 27 15.171 27 14.9997C27 14.8285 26.9524 14.6607 26.8624 14.5149C26.7724 14.3692 26.6437 14.2515 26.4906 14.1747L4.33903 3.10072C3.58333 2.72298 2.76004 3.47355 3.06524 4.25982L6.26253 12.8212C6.30033 12.9224 6.36413 13.0119 6.44753 13.0805C6.53093 13.1492 6.63093 13.1947 6.73753 13.2125L16.0067 14.7567C16.0645 14.766 16.1172 14.7955 16.1552 14.8401C16.1932 14.8845 16.214 14.9411 16.214 14.9997C16.214 15.0582 16.1932 15.1149 16.1552 15.1594C16.1172 15.204 16.0645 15.2335 16.0067 15.2427H16.0055Z" stroke="white" stroke-width="1.5"/>
</svg>
