<svg width="33" height="33" viewBox="0 0 33 33" fill="none" xmlns="http://www.w3.org/2000/svg">
<path d="M11.2265 24.4687C11.1579 24.4952 11.0816 24.4938 11.014 24.4648L11.4269 23.5102L11.2837 23.4483C11.3685 23.3435 11.4685 23.2306 11.5851 23.1135L11.5857 23.1129C12.0991 22.596 12.9307 22.0015 14.2106 21.6588L14.2113 21.6587C15.4905 21.315 16.5088 21.415 17.2124 21.6059L17.2137 21.6063C17.3734 21.6493 17.5161 21.6968 17.6413 21.7448L17.5483 21.8698L17.2901 22.2168C17.2159 22.1914 17.1408 22.1684 17.0649 22.1479C16.4506 21.9812 15.5333 21.8864 14.3566 22.2021C13.1783 22.517 12.4337 23.0586 11.9848 23.5074L11.9837 23.5086C11.7682 23.725 11.5813 23.968 11.4274 24.2317L11.4152 24.2527L11.4043 24.2744L11.3975 24.2881L11.3896 24.3039L11.3824 24.32C11.3522 24.3883 11.2962 24.4418 11.2265 24.4687ZM7.51037 18.3079L7.51031 18.3085C7.50674 18.3452 7.49597 18.3809 7.4786 18.4135C7.46123 18.4461 7.43761 18.475 7.40909 18.4985C7.38057 18.5219 7.34771 18.5396 7.31238 18.5503C7.27705 18.5611 7.23994 18.5648 7.20317 18.5612C7.16641 18.5577 7.13071 18.5469 7.09811 18.5295C7.06551 18.5122 7.03666 18.4885 7.01318 18.46C6.98971 18.4315 6.97209 18.3986 6.96132 18.3633C6.95055 18.328 6.94684 18.2909 6.95041 18.2541C7.04551 17.2822 7.76476 16.4235 8.7945 16.1478L8.79469 16.1478C9.82351 15.8721 10.8757 16.2559 11.4429 17.05L11.4432 17.0506C11.4867 17.1112 11.5042 17.1867 11.492 17.2603C11.4798 17.3339 11.4389 17.3997 11.3782 17.4431C11.3175 17.4865 11.242 17.5041 11.1684 17.4919C11.0948 17.4797 11.029 17.4387 10.9856 17.378L10.3757 17.8145L10.9867 17.3795C10.5615 16.7823 9.75365 16.4723 8.93914 16.6915L8.93866 16.6916C8.12956 16.91 7.58185 17.5784 7.51037 18.3079ZM15.4799 16.1725L15.4798 16.1731C15.4726 16.2474 15.4362 16.3157 15.3786 16.3631C15.321 16.4105 15.2469 16.4331 15.1727 16.4259C15.0984 16.4187 15.0301 16.3822 14.9827 16.3246C14.9354 16.2671 14.9128 16.1932 14.9199 16.1191C15.0148 15.1459 15.7339 14.2882 16.764 14.0125L16.7642 14.0124C17.7892 13.7377 18.8375 14.1178 19.4061 14.9059C19.4448 14.9657 19.4594 15.0379 19.4469 15.1081C19.434 15.1804 19.3933 15.2448 19.3335 15.2875C19.2738 15.3303 19.1997 15.3479 19.1271 15.3367C19.0561 15.3257 18.992 15.288 18.948 15.2314C18.5209 14.6433 17.7183 14.3382 16.9086 14.5561L16.9082 14.5563C16.0991 14.7746 15.5513 15.443 15.4799 16.1725Z" stroke="white" stroke-width="1.5"/>
<path d="M17.9568 3.79839L17.9568 3.79837L17.9026 3.77259C17.902 3.7723 17.9014 3.77201 17.9008 3.77172C16.87 3.28764 16.0674 2.9151 15.4089 2.69562C14.7332 2.47084 14.1686 2.39493 13.6209 2.55014C13.2695 2.65048 12.941 2.81299 12.6521 3.031L12.6508 3.03204C12.1922 3.3765 11.8952 3.87766 11.6374 4.56352L11.6372 4.56398C11.3841 5.23602 11.1555 6.12125 10.8616 7.26865L10.8616 7.26871L10.0023 10.6237L9.87492 11.1208L9.36543 11.1822C8.90389 11.2378 8.34852 11.2988 7.63437 11.3757C7.63396 11.3757 7.63356 11.3757 7.63315 11.3758L7.5738 11.3824L7.57025 11.3828L7.57025 11.3828C6.44198 11.5027 5.57043 11.5975 4.89546 11.7529L4.89355 11.7533C4.20078 11.9109 3.67735 12.1402 3.28013 12.5586L3.27991 12.5589C3.02588 12.8262 2.8206 13.1369 2.67413 13.4764L2.674 13.4767C2.44365 14.0101 2.4258 14.5964 2.52989 15.3267C2.632 16.0359 2.85561 16.9123 3.14476 18.0454L3.15199 18.0738L3.15218 18.0745L4.32898 22.6663C4.32898 22.6663 4.32898 22.6663 4.32899 22.6663C5.7349 28.1512 10.4129 29.8691 13.5042 30.3958L13.5329 30.3999L13.5436 30.4014L13.5543 30.4033C13.9963 30.4795 14.3654 30.5404 14.7919 30.5301L14.7926 30.5301C15.2343 30.5197 15.7294 30.4338 16.4476 30.2331C17.1659 30.0315 17.6361 29.8466 18.0227 29.6263C18.3972 29.4116 18.6875 29.166 19.0341 28.8693L17.9568 3.79839ZM17.9568 3.79839L17.9609 3.80033C19.5484 4.54444 20.3214 4.90551 21.1259 5.16034L21.1263 5.16049C21.4059 5.24884 21.6885 5.32904 21.9756 5.39933L21.977 5.39969C22.7948 5.59819 23.6352 5.68944 25.3668 5.8758L25.3668 5.87593L25.3807 5.87716L25.4356 5.88204C26.558 6.00289 27.4304 6.09899 28.106 6.25185C28.7994 6.41088 29.3227 6.64032 29.7198 7.05862L29.7222 7.06116C29.9744 7.3243 30.1785 7.63487 30.3258 7.97642L30.3261 7.97719C30.5561 8.50874 30.5742 9.09604 30.47 9.82817C30.367 10.541 30.1415 11.4286 29.848 12.5751C29.8479 12.5752 29.8479 12.5752 29.8479 12.5753L28.671 17.1662C27.7548 20.7401 25.4451 22.7177 23.0916 23.8067L22.8409 23.9227L22.7254 24.1736C21.7898 26.2049 20.3101 27.7803 19.0642 28.8435L19.063 28.8445L19.0345 28.869L17.9568 3.79839ZM22.7617 12.1797C22.9486 12.1072 23.1102 11.9815 23.2265 11.8181C23.4643 11.4854 23.9483 11.2819 24.4695 11.4207L22.7617 12.1797ZM22.7617 12.1797L24.0405 17.1737C24.3312 18.2691 24.4493 19.4009 24.3925 20.5285L22.7617 12.1797ZM17.0335 7.29298L16.839 8.01732C16.9563 8.04882 17.0713 8.08846 17.1831 8.13594L17.4379 8.24416L17.7019 8.16083C18.3271 7.96354 18.8611 7.90387 19.3796 8.05031C19.7295 8.14986 20.058 8.31306 20.3488 8.53173L20.3492 8.53204C20.8078 8.8765 21.1047 9.37766 21.3626 10.0635C21.3856 10.1249 21.408 10.1865 21.4297 10.2484L21.775 11.2336L22.5984 10.592C22.9065 10.3519 23.2663 10.1871 23.6493 10.1107C24.0323 10.0342 24.4278 10.0482 24.8044 10.1516L24.8088 10.1528C25.8379 10.4286 26.5579 11.2876 26.6517 12.2587L26.6517 12.2591C26.6589 12.3334 26.6364 12.4074 26.589 12.465C26.5416 12.5226 26.4732 12.559 26.399 12.5662C26.3247 12.5735 26.2506 12.5509 26.193 12.5035C26.1355 12.4561 26.099 12.3877 26.0918 12.3135L26.0918 12.3128C26.0206 11.5861 25.4764 10.9135 24.6631 10.6961L24.6626 10.696C23.8516 10.4799 23.0428 10.7853 22.6163 11.3819L22.6154 11.3833C22.5841 11.4272 22.5407 11.461 22.4904 11.4805L21.8701 11.7212L22.0352 12.3658L23.3139 17.3598L23.3139 17.3598L23.3156 17.3661C23.6709 18.7052 23.7494 20.1028 23.5461 21.4733L23.2791 23.2727L24.7367 22.1843C26.2442 21.0586 27.5144 19.4132 28.1261 17.0258C28.1261 17.0258 28.1261 17.0258 28.1261 17.0258L29.288 12.4924L29.2881 12.492L29.3023 12.4364C29.5984 11.2787 29.8167 10.4247 29.9131 9.7455C30.0108 9.06434 29.9811 8.59689 29.8096 8.20153C29.6887 7.91993 29.5203 7.66324 29.3115 7.44463C29.0238 7.14334 28.624 6.94777 27.9796 6.80118C27.332 6.65277 26.4777 6.56036 25.3073 6.43451L25.303 6.43408L25.2262 6.42628C25.2255 6.4262 25.2247 6.42613 25.224 6.42605C23.5616 6.24718 22.6922 6.15128 21.8431 5.94547C21.5457 5.87273 21.2483 5.7893 20.9533 5.69758C20.1212 5.43242 19.322 5.05963 17.7965 4.34539C17.7962 4.34525 17.7959 4.34512 17.7956 4.34499L17.7247 4.31153L17.7229 4.3107C16.6489 3.80749 15.8643 3.44006 15.2319 3.23026L14.9958 3.9418L15.2329 3.23059C14.6054 3.02144 14.1652 2.97942 13.7722 3.09171L13.7708 3.0921C13.4926 3.17215 13.2261 3.30366 12.9878 3.48235L12.987 3.48295C12.6558 3.73205 12.4055 4.11694 12.1625 4.76292L12.162 4.76434C11.9205 5.41016 11.6967 6.27691 11.3914 7.46685L11.3912 7.4674L10.7945 9.80078L10.4564 11.1227L11.7536 10.6997L11.8775 10.6593C12.4221 10.486 12.9464 10.2677 13.7104 9.91769L14.2233 9.68266L14.1397 9.12464C14.1289 9.05294 14.1466 8.97988 14.1888 8.92098L14.1898 8.91966C14.7569 8.12572 15.809 7.74159 16.8395 8.01747L17.0335 7.29298ZM17.0335 7.29298C17.1844 7.33351 17.3324 7.38451 17.4762 7.4456L13.398 9.23585C13.3583 8.97108 13.4234 8.70126 13.5795 8.48373C14.3357 7.42498 15.7135 6.9396 17.0335 7.29298ZM15.2753 9.81153L15.2043 9.84499C15.2039 9.84518 15.2035 9.84537 15.2031 9.84557C13.6778 10.5597 12.8787 10.9324 12.0466 11.1976C11.7516 11.2893 11.4541 11.3728 11.1566 11.4455C10.3076 11.6513 9.43823 11.7472 7.77587 11.9261C7.77516 11.9261 7.77445 11.9262 7.77374 11.9263L7.69695 11.9341L7.69695 11.9341L7.69267 11.9345C6.52266 12.0603 5.66851 12.1527 5.02097 12.301C4.37611 12.4477 3.97608 12.6433 3.68833 12.9447L3.68832 12.9447L3.68589 12.9473C3.47751 13.1677 3.30968 13.4231 3.19015 13.7019C3.01882 14.0972 2.98918 14.5645 3.08678 15.2455C3.1832 15.9248 3.40158 16.7787 3.69766 17.9365L3.71185 17.992L3.71195 17.9924L4.87382 22.5258L4.87384 22.5259C6.19796 27.6902 10.5928 29.3313 13.6092 29.844L13.6095 29.8441C14.0753 29.923 14.4006 29.9776 14.78 29.9671C15.1547 29.958 15.6003 29.8863 16.2958 29.6923L16.2976 29.6918C16.9919 29.4963 17.4128 29.3264 17.7442 29.1368L17.7449 29.1364C18.0764 28.9463 18.3312 28.7307 18.6987 28.417C21.0694 26.394 24.0955 22.6703 22.7705 17.4991L22.7705 17.499L21.6086 12.967L21.6086 12.9668C21.3033 11.7769 21.0794 10.9102 20.838 10.2643L20.8374 10.2629C20.5946 9.61736 20.3444 9.23254 20.0135 8.98343C19.778 8.8056 19.5116 8.6728 19.2278 8.59171C18.8347 8.47942 18.3945 8.52144 17.767 8.73059L17.7671 8.73102C17.1335 8.94105 16.3494 9.30827 15.277 9.8107L15.2753 9.81153Z" stroke="white" stroke-width="1.5"/>
</svg>
